<svg id="Lager_1" data-name="Lager 1" xmlns="http://www.w3.org/2000/svg" viewBox="0 0 285.35 89.99"><defs><style>.cls-1{fill:#fff;}</style></defs><path class="cls-1" d="M69.12,13.33A10.94,10.94,0,0,0,66,6.54a3.08,3.08,0,0,0-4-.81A143.37,143.37,0,0,0,25.18,27.61c-8.4,7-15.72,15.07-20.5,25.09a4.1,4.1,0,0,0-.58,1.95c.3,2.89,4.06,5.7,7,5.55a7.78,7.78,0,0,1,3.74.64Q48.41,77.7,81.94,94.67c2.72,1.37,5,.56,5.62-2.34a12.62,12.62,0,0,0-.33-5.69q-9.24-33-18.7-66c-.47-1.64-.87-3.14,0-4.78A8.32,8.32,0,0,0,69.12,13.33Zm202,64.44V59.47c3.92,5.63,7.45,11.3,11.05,16.93a3,3,0,0,0,1.8,1.37,52.23,52.23,0,0,0,5.47.06V51.11h-5.61v18a4.42,4.42,0,0,1-1.56-1.59c-3.2-5.07-6.38-10.15-9.62-15.18A2.76,2.76,0,0,0,271,51.08c-1.78-.17-3.59-.06-5.45-.06V77.77ZM181.45,51.13V77.75c4,0,7.84.12,11.67-.06a11.86,11.86,0,0,0,4.6-1.28c4.8-2.36,6.13-6.71,6.33-11.61.29-7.39-3.65-12.95-10.13-13.59C189.84,50.8,185.69,51.13,181.45,51.13Zm28,26.7c3.5,0,6.78,0,10,0,7-.13,11.13-3.53,12.37-10.32a18.17,18.17,0,0,0,.11-5.41c-.61-4.77-2.63-8.7-7.59-10.27s-9.91-.53-14.94-.83ZM145,65.89c.36-.19.6-.34.85-.44,3.76-1.52,5.1-3.75,4.69-7.81a7.09,7.09,0,0,0-6.4-6.45c-3.94-.32-7.92-.08-12-.08V77.68h5.58V66.32l.5-.41c.59.45,1.38.77,1.74,1.36,1.92,3.07,3.71,6.22,5.61,9.3.32.52.94,1.16,1.47,1.2,1.84.15,3.7.06,5.95.06ZM117.24,63.8,127.65,51a43.72,43.72,0,0,1-4.51,0,3.83,3.83,0,0,0-3.84,1.86c-1.94,2.64-4,5.17-6.17,7.66-.52.6-1.46.84-2.68,1.51V51.19H105V77.7h5.57V66.6l.58-.44a9.47,9.47,0,0,1,2.24,1.58c2.27,2.92,4.4,5.94,6.63,8.89a2.72,2.72,0,0,0,1.55,1.15c2,.13,4,0,5.93,0,.08-.27.14-.36.12-.39C124.18,72.94,120.76,68.45,117.24,63.8ZM261.17,77.74c-.23-.76-.41-1.42-.64-2.06q-3.67-9.89-7.36-19.75c-1.86-5-1.86-5-7.2-5a2,2,0,0,0-2.19,1.63c-.89,2.56-1.89,5.08-2.83,7.62q-3.21,8.69-6.41,17.42c5.36.7,5.4.71,7.15-4a1.73,1.73,0,0,1,1.95-1.37c2.72.07,5.46.1,8.18,0a2.09,2.09,0,0,1,2.4,1.68c1.38,3.93,1.42,3.91,5.58,3.84C260.21,77.83,260.61,77.78,261.17,77.74ZM177.51,51a40,40,0,0,1-4.16,0,2.85,2.85,0,0,0-3.13,1.76c-1.32,2.41-2.85,4.7-4.44,7.28-1.68-2.73-3.17-5.23-4.75-7.68-.34-.53-.92-1.21-1.45-1.26-1.69-.16-3.4-.06-5.5-.06,2.79,4.43,5.39,8.45,7.86,12.55a7.15,7.15,0,0,1,1,3.28c.12,3.6,0,7.21,0,10.84h5.67c0-3.69-.08-7.24,0-10.77a7.57,7.57,0,0,1,1-3.48C172.1,59.4,174.69,55.45,177.51,51Zm88.85-8.63V23.87h-3.82V36.26l-.4.14L255.7,26.29c-1.87-2.94-2.34-3.12-6-2.32V42.52h3.76V29.81a66.51,66.51,0,0,1,6.35,9.58C261.25,42.09,263,43.48,266.36,42.38Zm22.31-14.46c-2.55-4.51-8.83-5.9-13.66-3.14-4.33,2.47-5.69,9.15-2.84,13.88a8.19,8.19,0,0,0,5.47,3.9c3.08.64,6.1.38,8.6-2.08l.49,2.07h2.72V32.44H280.8V35.6h4.86c-1,2.9-2.46,3.9-5.41,3.8a5.56,5.56,0,0,1-5.26-4c-.9-3.07.07-6.26,2.33-7.66,2.54-1.59,4.94-1.09,8.31,1.79Zm-77.63-4q0,8.77,0,17.53a8.89,8.89,0,0,0,.11,1.06H215v-8.1l.52-.25a7.38,7.38,0,0,1,1.31,1.24c.91,1.4,1.71,2.87,2.56,4.3,2,3.29,2,3.29,6.24,2.71-1.86-2.8-3.64-5.5-5.45-8.21l1.23-.66a4.57,4.57,0,0,0,2.6-5.17c-.33-2.22-1.83-4.23-3.88-4.39C217.15,23.76,214.16,23.94,211,23.94ZM113.88,34.1c2.69-.9,4.13-2.48,3.92-5.19-.18-2.28-1.18-4.32-3.44-4.73a82.34,82.34,0,0,0-9.56-.64v19h4V34.36l.52-.2a10.15,10.15,0,0,1,1.28,1.35c.92,1.47,1.77,3,2.65,4.49,1.83,3.08,2.06,3.18,6,2.33ZM191,23.8c0,4.37-.15,8.49,0,12.58s2.77,6.24,6.88,6.37c4.68.14,7.57-1.83,7.86-6s.07-8.58.07-12.95H202c0,.57-.1,1-.1,1.4,0,3.62,0,7.25-.08,10.87a3.39,3.39,0,0,1-6.77,0c-.09-1-.07-2.09-.07-3.14,0-3,0-6.07,0-9.2Zm-3.14,18.71c-2.27-6.16-4.48-12.15-6.71-18.12a1.31,1.31,0,0,0-.74-.64,3.89,3.89,0,0,0-5.3,2.5c-.53,1.43-1,2.87-1.57,4.31L168.9,43c1.78-1,4,.85,4.5-1.54.61-2.66,2.08-3.23,4.47-2.91,1.1.15,2.26-.1,3.34.08a2.4,2.4,0,0,1,1.61,1.14C184.18,42.79,184.13,42.81,187.84,42.51Zm58.06-.09c-.21-.66-.4-1.32-.63-2C243.5,35.65,241.63,30.86,240,26c-.62-1.81-1.48-2.47-3.43-2.39-1.7.06-2.66.43-3.16,2.16-.63,2.19-1.53,4.31-2.33,6.46q-1.86,5.06-3.74,10.1l.37.65c1.29-.42,3.57-.63,3.71-1.29.66-3.19,2.68-3.39,5.22-3.11a14.74,14.74,0,0,1,2.5.07A3.16,3.16,0,0,1,241,40C242.36,43,242.3,43,245.9,42.42ZM152,28.37a8.61,8.61,0,0,0-.31-1.23c-1.33-3-6.12-4.67-9.83-3.37-2.42.85-3.76,2.47-3.86,4.67-.12,2.55.78,3.9,3.52,5,1.61.66,3.28,1.15,4.9,1.78,1.24.48,2,1.39,1.61,2.76a2.23,2.23,0,0,1-3,1.59,26,26,0,0,1-4.34-2.52l.29-.56-3.54.88c.23,4,5,6.42,10.37,5.07,2.84-.72,4.34-2.59,4.41-5.11.07-2.27-1.28-4.08-3.9-5.1-1.62-.63-3.35-1-4.9-1.79a2.58,2.58,0,0,1-1.32-2,2.81,2.81,0,0,1,1.8-1.67c2.21-.66,3.72.43,4.56,2.49ZM134,23.82H123.15V42.54H134V39.09h-6.78V34.74h5.93V31.36h-6V27.13H134ZM167.3,27.2V23.84H154.66v3.24l4.48.22V42.57H163V27.2Z" transform="translate(-4.09 -5.33)"/><path d="M69.12,13.33a8.32,8.32,0,0,1-.55,2.52c-.91,1.64-.51,3.14,0,4.78q9.42,33,18.7,66a12.62,12.62,0,0,1,.33,5.69c-.58,2.9-2.9,3.71-5.62,2.34Q48.39,77.73,14.81,60.84a7.78,7.78,0,0,0-3.74-.64c-2.91.15-6.67-2.66-7-5.55a4.1,4.1,0,0,1,.58-1.95c4.78-10,12.1-18.05,20.5-25.09A143.37,143.37,0,0,1,62,5.73a3.08,3.08,0,0,1,4,.81A10.94,10.94,0,0,1,69.12,13.33Zm9.81,52.55c-2.55,1.46-4.58.35-6.41-1.11a26.66,26.66,0,0,1-3.36-3.44,5.75,5.75,0,0,1-.73-7,21.89,21.89,0,0,1,3.91-5.1,2.85,2.85,0,0,0,.83-3.41C71.74,41,70.42,36.08,69,31.21c-1.13-4-2.27-7.93-3.45-12.07C45.32,28,29.22,41.64,15.07,58.2c.85.47,1.43.81,2,1.12,5.36,2.69,10.76,5.32,16.08,8.1a3,3,0,0,0,3.57-.13c3.45-2.34,7.17-4.19,11.44-4.2a8.53,8.53,0,0,1,4.92,1.21c5.14,4,7.84,9,5.34,15.8l5.68,2.83L64,80.5c3.45,2.9,5.9,6,9.72,7.41a3.44,3.44,0,0,0,2.86,0,10.17,10.17,0,0,1,4.57-1.1c1.5.16,2.89,1.27,4.3,2C83.33,81.35,81.16,73.69,78.93,65.88Z" transform="translate(-4.09 -5.33)"/><path d="M271.13,77.77h-5.58V51c1.86,0,3.67-.11,5.45.06a2.76,2.76,0,0,1,1.66,1.27c3.24,5,6.42,10.11,9.62,15.18a4.42,4.42,0,0,0,1.56,1.59v-18h5.61V77.83a52.23,52.23,0,0,1-5.47-.06,3,3,0,0,1-1.8-1.37c-3.6-5.63-7.13-11.3-11.05-16.93Z" transform="translate(-4.09 -5.33)"/><path d="M181.45,51.13c4.24,0,8.39-.33,12.47.08,6.48.64,10.42,6.2,10.13,13.59-.2,4.9-1.53,9.25-6.33,11.61a11.86,11.86,0,0,1-4.6,1.28c-3.83.18-7.67.06-11.67.06Zm5.74,4.78v17c3.51-.07,7.31.87,9.47-2.65a10.75,10.75,0,0,0,.05-11.54C194.58,55.07,190.78,56,187.19,55.91Z" transform="translate(-4.09 -5.33)"/><path d="M209.43,77.83V51c5,.3,10.06-.73,14.94.83s7,5.5,7.59,10.27a18.17,18.17,0,0,1-.11,5.41c-1.24,6.79-5.37,10.19-12.37,10.32C216.21,77.88,212.93,77.83,209.43,77.83Zm5.74-5c3.63,0,7.48.9,9.63-2.81a10.65,10.65,0,0,0-.17-11.52c-2.22-3.48-6-2.54-9.46-2.54Z" transform="translate(-4.09 -5.33)"/><path d="M145,65.89l8,11.94c-2.25,0-4.11.09-5.95-.06-.53,0-1.15-.68-1.47-1.2-1.9-3.08-3.69-6.23-5.61-9.3-.36-.59-1.15-.91-1.74-1.36l-.5.41V77.68h-5.58V51.11c4,0,8-.24,12,.08a7.09,7.09,0,0,1,6.4,6.45c.41,4.06-.93,6.29-4.69,7.81C145.63,65.55,145.39,65.7,145,65.89ZM137.89,62a42,42,0,0,0,4.91-.3,3,3,0,0,0-.25-6,40,40,0,0,0-4.66,0Z" transform="translate(-4.09 -5.33)"/><path d="M117.24,63.8c3.52,4.65,6.94,9.14,10.35,13.64,0,0,0,.12-.12.39-1.93,0-3.94.08-5.93,0A2.72,2.72,0,0,1,120,76.63c-2.23-2.95-4.36-6-6.63-8.89a9.47,9.47,0,0,0-2.24-1.58l-.58.44V77.7H105V51.19h5.48V62c1.22-.67,2.16-.91,2.68-1.51,2.14-2.49,4.23-5,6.17-7.66A3.83,3.83,0,0,1,123.14,51a43.72,43.72,0,0,0,4.51,0Z" transform="translate(-4.09 -5.33)"/><path d="M261.17,77.74c-.56,0-1,.09-1.37.09-4.16.07-4.2.09-5.58-3.84a2.09,2.09,0,0,0-2.4-1.68c-2.72.11-5.46.08-8.18,0a1.73,1.73,0,0,0-1.95,1.37c-1.75,4.66-1.79,4.65-7.15,4q3.21-8.74,6.41-17.42c.94-2.54,1.94-5.06,2.83-7.62A2,2,0,0,1,246,51c5.34,0,5.34-.06,7.2,5q3.68,9.88,7.36,19.75C260.76,76.32,260.94,77,261.17,77.74ZM247.88,56.2c-1.41,4.08-2.62,7.58-3.86,11.19h7.88C250.57,63.7,249.34,60.26,247.88,56.2Z" transform="translate(-4.09 -5.33)"/><path d="M177.51,51c-2.82,4.44-5.41,8.39-7.85,12.43a7.57,7.57,0,0,0-1,3.48c-.13,3.53,0,7.08,0,10.77H163c0-3.63.08-7.24,0-10.84a7.15,7.15,0,0,0-1-3.28c-2.47-4.1-5.07-8.12-7.86-12.55,2.1,0,3.81-.1,5.5.06.53.05,1.11.73,1.45,1.26,1.58,2.45,3.07,4.95,4.75,7.68,1.59-2.58,3.12-4.87,4.44-7.28A2.85,2.85,0,0,1,173.35,51,40,40,0,0,0,177.51,51Z" transform="translate(-4.09 -5.33)"/><path d="M266.36,42.38c-3.37,1.1-5.11-.29-6.53-3a66.51,66.51,0,0,0-6.35-9.58V42.52h-3.76V24c3.64-.8,4.11-.62,6,2.32l6.44,10.11.4-.14V23.87h3.82Z" transform="translate(-4.09 -5.33)"/><path d="M288.67,27.92l-3,1.57c-3.37-2.88-5.77-3.38-8.31-1.79-2.26,1.4-3.23,4.59-2.33,7.66a5.56,5.56,0,0,0,5.26,4c2.95.1,4.45-.9,5.41-3.8H280.8V32.44h8.65V42.55h-2.72l-.49-2.07c-2.5,2.46-5.52,2.72-8.6,2.08a8.19,8.19,0,0,1-5.47-3.9c-2.85-4.73-1.49-11.41,2.84-13.88C279.84,22,286.12,23.41,288.67,27.92Z" transform="translate(-4.09 -5.33)"/><path d="M211,23.94c3.12,0,6.11-.18,9.08.06,2,.16,3.55,2.17,3.88,4.39a4.57,4.57,0,0,1-2.6,5.17l-1.23.66c1.81,2.71,3.59,5.41,5.45,8.21-4.29.58-4.29.58-6.24-2.71-.85-1.43-1.65-2.9-2.56-4.3a7.38,7.38,0,0,0-1.31-1.24l-.52.25v8.1h-3.83a8.89,8.89,0,0,1-.11-1.06Q211,32.71,211,23.94Zm4,8a34.76,34.76,0,0,0,4.89-1.74c.28-.15.16-2.13-.22-2.31a27,27,0,0,0-4.67-1.33Z" transform="translate(-4.09 -5.33)"/><path d="M113.88,34.1l5.42,8.23c-4,.85-4.18.75-6-2.33-.88-1.5-1.73-3-2.65-4.49a10.15,10.15,0,0,0-1.28-1.35l-.52.2v8.13h-4v-19a82.34,82.34,0,0,1,9.56.64c2.26.41,3.26,2.45,3.44,4.73C118,31.62,116.57,33.2,113.88,34.1Zm-5-2.15a37.94,37.94,0,0,0,4.85-1.75c.28-.14.22-2-.13-2.17a33.32,33.32,0,0,0-4.72-1.59Z" transform="translate(-4.09 -5.33)"/><path d="M191,23.8h4c0,3.13,0,6.17,0,9.2,0,1,0,2.1.07,3.14a3.39,3.39,0,0,0,6.77,0c.12-3.62.06-7.25.08-10.87,0-.41.06-.83.1-1.4h3.84c0,4.37.23,8.68-.07,12.95s-3.18,6.09-7.86,6c-4.11-.13-6.69-2.35-6.88-6.37S191,28.17,191,23.8Z" transform="translate(-4.09 -5.33)"/><path d="M187.84,42.51c-3.71.3-3.66.28-5-2.72a2.4,2.4,0,0,0-1.61-1.14c-1.08-.18-2.24.07-3.34-.08-2.39-.32-3.86.25-4.47,2.91-.54,2.39-2.72.58-4.5,1.54l4.62-12.46c.53-1.44,1-2.88,1.57-4.31a3.89,3.89,0,0,1,5.3-2.5,1.31,1.31,0,0,1,.74.64C183.36,30.36,185.57,36.35,187.84,42.51Zm-12.09-7.37h5.48l-2.77-7.73C177.44,30.32,176.6,32.7,175.75,35.14Z" transform="translate(-4.09 -5.33)"/><path d="M245.9,42.42C242.3,43,242.36,43,241,40a3.16,3.16,0,0,0-1.91-1.31,14.74,14.74,0,0,0-2.5-.07c-2.54-.28-4.56-.08-5.22,3.11-.14.66-2.42.87-3.71,1.29l-.37-.65q1.88-5.05,3.74-10.1c.8-2.15,1.7-4.27,2.33-6.46.5-1.73,1.46-2.1,3.16-2.16,1.95-.08,2.81.58,3.43,2.39,1.65,4.86,3.52,9.65,5.29,14.47C245.5,41.1,245.69,41.76,245.9,42.42Zm-9-14.32-.5,0c-.81,2.32-1.62,4.63-2.52,7.17h5.52Z" transform="translate(-4.09 -5.33)"/><path d="M152,28.37l-3.52.92c-.84-2.06-2.35-3.15-4.56-2.49a2.81,2.81,0,0,0-1.8,1.67,2.58,2.58,0,0,0,1.32,2c1.55.76,3.28,1.16,4.9,1.79,2.62,1,4,2.83,3.9,5.1-.07,2.52-1.57,4.39-4.41,5.11-5.34,1.35-10.14-1.08-10.37-5.07l3.54-.88-.29.56A26,26,0,0,0,145,39.59,2.23,2.23,0,0,0,148,38c.39-1.37-.37-2.28-1.61-2.76-1.62-.63-3.29-1.12-4.9-1.78-2.74-1.12-3.64-2.47-3.52-5,.1-2.2,1.44-3.82,3.86-4.67,3.71-1.3,8.5.34,9.83,3.37A8.61,8.61,0,0,1,152,28.37Z" transform="translate(-4.09 -5.33)"/><path d="M134,23.82v3.31h-6.85v4.23h6v3.38h-5.93v4.35H134v3.45H123.15V23.82Z" transform="translate(-4.09 -5.33)"/><path d="M167.3,27.2H163V42.57h-3.85V27.3l-4.48-.22V23.84H167.3Z" transform="translate(-4.09 -5.33)"/><path class="cls-1" d="M78.93,65.88c2.23,7.81,4.4,15.47,6.52,22.91-1.41-.69-2.8-1.8-4.3-2a10.17,10.17,0,0,0-4.57,1.1,3.44,3.44,0,0,1-2.86,0C69.9,86.53,67.45,83.4,64,80.5l.14,2.43L58.46,80.1c2.5-6.77-.2-11.82-5.34-15.8a8.53,8.53,0,0,0-4.92-1.21c-4.27,0-8,1.86-11.44,4.2a3,3,0,0,1-3.57.13c-5.32-2.78-10.72-5.41-16.08-8.1-.61-.31-1.19-.65-2-1.12C29.22,41.64,45.32,28,65.59,19.14c1.18,4.14,2.32,8.1,3.45,12.07,1.38,4.87,2.7,9.76,4.13,14.62a2.85,2.85,0,0,1-.83,3.41,21.89,21.89,0,0,0-3.91,5.1,5.75,5.75,0,0,0,.73,7,26.66,26.66,0,0,0,3.36,3.44C74.35,66.23,76.38,67.34,78.93,65.88ZM47.55,54.73l0-.38c.84,0,1.68.06,2.51,0a7.63,7.63,0,0,0,5.82-2.83c2.43-3.16,1.3-12.41-2.82-14.74-3.89-2.21-7.65-1.56-11.47-.22-2.23.79-4.66,1.57-5.43,4.15-2.45,8.25-2,10.55,6,13.23A30.07,30.07,0,0,0,47.55,54.73ZM55,33l-.17.79a6.17,6.17,0,0,0,1.4.5c3,.31,6,.38,7.15,4,.05.18.26.43.42.44,1.11.09,2.48.55,3.28.07a3.51,3.51,0,0,0,1.38-2.88,37.76,37.76,0,0,0-1.9-6.31,2.65,2.65,0,0,0-3.49-1.84A2.76,2.76,0,0,0,60.87,31c.12.86.18,1.73.28,2.69ZM33.73,63.39c2.07.2,3.9-2,3-3.87-1.13-2.44-2.82-4.57-5.57-5.29a3.32,3.32,0,0,0-2.73.89c-.59.64-1.05,2.27-.67,2.75a58.5,58.5,0,0,0,5.15,5.3C33.1,63.34,33.46,63.32,33.73,63.39Zm37.19,7.83c-2-.06-3.73,2-2.83,3.82a20,20,0,0,0,3.6,5,2.83,2.83,0,0,0,4.58-1.32C77,76.64,73.17,71.28,70.92,71.22Zm-19.82-11c-2-.74-3.43-1.29-4.86-1.74-.28-.09-.67.16-1,.26.21.27.36.69.64.8a37.81,37.81,0,0,0,3.7,1.31C49.83,60.89,50.19,60.57,51.1,60.18ZM81,79.75c-1.46,1.45-.22,2.49,0,3.49.08.5.6.92.93,1.38l.61-.4ZM62.73,49.39l-.77.78a7.93,7.93,0,0,0,3.18,2.09l.53-.55Zm1.6,20.15,1,.32,1-3.58L65.49,66Z" transform="translate(-4.09 -5.33)"/><path class="cls-1" d="M187.19,55.91c3.59.1,7.39-.84,9.52,2.76a10.75,10.75,0,0,1-.05,11.54c-2.16,3.52-6,2.58-9.47,2.65Z" transform="translate(-4.09 -5.33)"/><path class="cls-1" d="M215.17,72.84V56c3.5,0,7.24-.94,9.46,2.54A10.65,10.65,0,0,1,224.8,70C222.65,73.74,218.8,72.8,215.17,72.84Z" transform="translate(-4.09 -5.33)"/><path class="cls-1" d="M137.89,62V55.72a40,40,0,0,1,4.66,0,3,3,0,0,1,.25,6A42,42,0,0,1,137.89,62Z" transform="translate(-4.09 -5.33)"/><path class="cls-1" d="M175.75,35.14c.85-2.44,1.69-4.82,2.71-7.73l2.77,7.73Z" transform="translate(-4.09 -5.33)"/><path d="M47.55,54.73a30.07,30.07,0,0,1-5.32-.8c-8.07-2.68-8.48-5-6-13.23.77-2.58,3.2-3.36,5.43-4.15,3.82-1.34,7.58-2,11.47.22,4.12,2.33,5.25,11.58,2.82,14.74a7.63,7.63,0,0,1-5.82,2.83c-.83.07-1.67,0-2.51,0Z" transform="translate(-4.09 -5.33)"/><path d="M55,33l6.13.73c-.1-1-.16-1.83-.28-2.69a2.76,2.76,0,0,1,2.22-3.28,2.65,2.65,0,0,1,3.49,1.84,37.76,37.76,0,0,1,1.9,6.31,3.51,3.51,0,0,1-1.38,2.88c-.8.48-2.17,0-3.28-.07-.16,0-.37-.26-.42-.44-1.11-3.61-4.18-3.68-7.15-4a6.17,6.17,0,0,1-1.4-.5Z" transform="translate(-4.09 -5.33)"/><path d="M33.73,63.39c-.27-.07-.63,0-.8-.22a58.5,58.5,0,0,1-5.15-5.3c-.38-.48.08-2.11.67-2.75a3.32,3.32,0,0,1,2.73-.89c2.75.72,4.44,2.85,5.57,5.29C37.63,61.42,35.8,63.59,33.73,63.39Z" transform="translate(-4.09 -5.33)"/><path d="M70.92,71.22c2.25.06,6.06,5.42,5.35,7.54a2.83,2.83,0,0,1-4.58,1.32,20,20,0,0,1-3.6-5C67.19,73.27,68.92,71.16,70.92,71.22Z" transform="translate(-4.09 -5.33)"/><path d="M51.1,60.18c-.91.39-1.27.71-1.52.63a37.81,37.81,0,0,1-3.7-1.31c-.28-.11-.43-.53-.64-.8.33-.1.72-.35,1-.26C47.67,58.89,49.07,59.44,51.1,60.18Z" transform="translate(-4.09 -5.33)"/><path d="M81,79.75l1.49,4.47-.61.4c-.33-.46-.85-.88-.93-1.38C80.77,82.24,79.53,81.2,81,79.75Z" transform="translate(-4.09 -5.33)"/><path d="M62.73,49.39l2.94,2.32-.53.55A7.93,7.93,0,0,1,62,50.17Z" transform="translate(-4.09 -5.33)"/><path d="M64.33,69.54,65.49,66l.89.29-1,3.58Z" transform="translate(-4.09 -5.33)"/></svg>